<?xml version="1.0" encoding="utf-8"?>
<!-- Generator: Adobe Illustrator 24.0.1, SVG Export Plug-In . SVG Version: 6.00 Build 0)  -->
<svg version="1.1" id="Layer_1" xmlns="http://www.w3.org/2000/svg" xmlns:xlink="http://www.w3.org/1999/xlink" x="0px" y="0px"
	 viewBox="0 0 220.9 163" style="enable-background:new 0 0 220.9 163;" xml:space="preserve">
<style type="text/css">
	.st0{fill:#002026;}
</style>
<title>Asset 1b</title>
<g id="Layer_2_1_">
	<g id="Layer_1-2">
		<path class="st0" d="M34,163l14.9-33.2h2L36,163H34z"/>
		<path class="st0" d="M50.2,151.5h4.3c0,2.8,1.9,4.2,5.1,4.2c2.8,0,4.5-1.3,4.5-3.2c0-2.1-2.3-3.1-5-4c-3.8-1.4-8.3-2.8-8.3-8.1
			c0-4.7,4-7.2,8.3-7.2c4.5,0,8.6,2.6,8.6,8h-4.3c0-2.6-1.7-3.9-4.3-3.9c-2.3,0-4,1.2-4,3.1c0,2.2,2.1,3.2,4.7,4.2
			c3.8,1.4,8.6,2.8,8.6,8c0,4.8-4.1,7.4-8.8,7.4C54.5,159.8,50.2,157.1,50.2,151.5z"/>
		<path class="st0" d="M86,159.3l-10.3-12.3v12.3h-4.3v-25.8h4.3v11.5l9.9-11.5h5.1l-10.6,12.6l11,13.2H86z"/>
		<path class="st0" d="M89.8,146.4c-0.1-7.5,5.9-13.6,13.4-13.7c7.5-0.1,13.6,5.9,13.7,13.4s-5.9,13.6-13.4,13.7c0,0-0.1,0-0.1,0
			c-7.4,0.1-13.4-5.8-13.5-13.2C89.8,146.6,89.8,146.5,89.8,146.4z M112.5,146.4c0-5.1-4.2-9.2-9.3-9.2c-5.1,0-9.2,4.2-9.2,9.3
			c0,5.1,4.1,9.2,9.2,9.2c5,0.1,9.1-3.9,9.2-8.9C112.5,146.7,112.5,146.6,112.5,146.4z"/>
		<path class="st0" d="M137.8,141.8c0,4.6-3.8,8.3-8.4,8.3c0,0,0,0-0.1,0H124v9.2h-4.3v-25.8h9.6c4.6-0.1,8.4,3.6,8.5,8.1
			C137.8,141.7,137.8,141.8,137.8,141.8z M133.5,141.8c0.1-2.3-1.7-4.2-4-4.3c0,0-0.1,0-0.1,0H124v8.6h5.3c2.3,0,4.2-1.9,4.2-4.2
			C133.5,141.9,133.5,141.9,133.5,141.8z"/>
		<path class="st0" d="M136.3,151.8v-0.6h4.3v0.6c0,2.7,1.8,3.9,4.3,3.9s4.3-1.2,4.3-3.9v-18.3h4.3v18.3c0,5.5-4.1,8-8.6,8
			S136.3,157.3,136.3,151.8z"/>
		<path class="st0" d="M172.9,155.3v4.1h-15.3v-25.8h15.1v4.1h-10.8v6.7h9.9v4h-9.9v7L172.9,155.3z"/>
		<path class="st0" d="M52.7,0h19.4c4.5,0,9,0.5,13.4,1.6c4,0.9,7.7,2.7,11,5.1c3.2,2.4,5.8,5.5,7.5,9.1c2,4.3,2.9,9,2.8,13.7
			c0.1,4.3-0.8,8.6-2.7,12.5c-1.7,3.5-4.2,6.6-7.2,9.1c-3.1,2.5-6.7,4.4-10.5,5.6c-4,1.3-8.3,1.9-12.5,1.9H52.7V0z M65.6,46.7h6.7
			c2.8,0,5.6-0.3,8.3-0.9c2.4-0.5,4.7-1.5,6.7-3c1.9-1.5,3.4-3.4,4.4-5.5c1.2-2.6,1.7-5.5,1.6-8.4c0.1-2.6-0.5-5.2-1.6-7.5
			c-1-2.1-2.5-3.9-4.3-5.3c-1.9-1.4-4.1-2.5-6.4-3.1c-2.5-0.7-5.1-1-7.7-1h-7.7V46.7z"/>
		<path class="st0" d="M113.8,0h39.8v11.9h-26.9v10.9h25.4v11.9h-25.4v11.9h28.4v11.9h-41.3V0z"/>
		<path class="st0" d="M159.6,0h14.7l14.5,38.4h0.1L203.8,0h13.8l-24.2,58.6h-10.3L159.6,0z"/>
		<path class="st0" d="M37,111.7c-2.2,1.1-4.6,1.7-7,1.7c-2.2,0-4.5-0.5-6.5-1.4c-2-0.9-3.8-2.3-5.3-3.9c-1.5-1.8-2.7-3.8-3.5-6
			c-1.7-4.9-1.7-10.2,0-15.1c0.8-2.2,2-4.3,3.6-6c1.5-1.7,3.3-3,5.4-3.9c2.1-1,4.4-1.4,6.7-1.4c2.2,0,4.4,0.4,6.4,1.2
			c1.5,0.7,2.9,1.7,4.1,2.9c1.7-4,4.2-7.7,7.2-10.8c-0.3-0.3-0.7-0.5-1-0.8c-1.6-1.1-3.2-2-5-2.6c-1.7-0.7-3.5-1.1-5.3-1.5
			c-1.7-0.3-3.4-0.4-5.2-0.5c-4.3-0.1-8.6,0.7-12.7,2.1c-3.7,1.4-7.1,3.5-10,6.2c-2.9,2.7-5.1,6.1-6.6,9.7c-3.2,8.2-3.2,17.3,0,25.5
			c1.5,3.7,3.7,7,6.6,9.7c2.9,2.7,6.3,4.8,10,6.2c4.1,1.5,8.4,2.2,12.7,2.1c4,0,8-0.9,11.8-2.5c1.6-0.7,3.1-1.6,4.5-2.6
			c-3.1-3.3-5.6-7.1-7.2-11.3C39.6,110,38.4,110.9,37,111.7z"/>
		<path class="st0" d="M117.3,65.1h17.6l24.9,40.8h0.2V65.1h12.9v58.6H156L130.4,82h-0.2v41.8h-12.9V65.1z"/>
		<path class="st0" d="M4.7,35.3v-8.4L46.2,9.4v11.1l-25,10.7l25,10.4v11.2L4.7,35.3z"/>
		<path class="st0" d="M179.4,114.1V103l25-10.4l-25-10.7V70.7l41.6,17.5v8.4L179.4,114.1z"/>
		<path class="st0" d="M47.1,94.4c-0.1-4.4,0.7-8.7,2.4-12.8c1.5-3.7,3.7-6.9,6.5-9.7c2.9-2.7,6.3-4.8,10-6.2
			c4.1-1.5,8.4-2.2,12.7-2.2c4.3,0,8.6,0.7,12.7,2.2c3.7,1.4,7.1,3.5,10,6.2c2.9,2.7,5.1,6,6.7,9.7c3.1,8.2,3.1,17.3,0,25.5
			c-1.5,3.7-3.7,7-6.6,9.7c-2.9,2.7-6.3,4.8-10,6.2c-8.2,2.9-17.1,2.9-25.3,0c-3.7-1.4-7.1-3.5-10-6.2c-2.9-2.7-5.1-6.1-6.6-9.7
			C47.9,103.1,47,98.8,47.1,94.4z M60.5,94.4c0,2.6,0.4,5.1,1.3,7.6c0.8,2.2,2.1,4.3,3.7,6c1.6,1.7,3.6,3,5.8,3.9
			c4.8,1.9,10.2,1.9,15,0c2.2-0.9,4.1-2.2,5.8-3.9c1.6-1.7,2.9-3.8,3.7-6c1.7-4.9,1.7-10.2,0-15.1c-0.8-2.2-2.1-4.3-3.7-6
			c-1.6-1.7-3.6-3-5.8-3.9c-4.8-1.9-10.2-1.9-15,0c-2.2,0.9-4.1,2.2-5.8,3.9c-1.6,1.7-2.9,3.8-3.7,6C60.9,89.3,60.5,91.9,60.5,94.4z
			"/>
	</g>
</g>
</svg>
