<svg xmlns="http://www.w3.org/2000/svg" viewBox="0 0 220.92 163.03"><defs><style>.cls-1{fill:#fcfcfc;}</style></defs><title>Asset 1b</title><g id="Layer_2" data-name="Layer 2"><g id="Layer_1-2" data-name="Layer 1"><path class="cls-1" d="M34,163l14.89-33.17h2.05L36,163Z"/><path class="cls-1" d="M50.18,151.53h4.28c0,2.76,1.94,4.17,5.1,4.17,2.83,0,4.51-1.33,4.51-3.25,0-2.14-2.31-3.09-5-4-3.84-1.37-8.34-2.77-8.34-8.11,0-4.72,4-7.23,8.27-7.23,4.5,0,8.59,2.62,8.59,8H63.32c0-2.58-1.71-3.87-4.31-3.87-2.35,0-4,1.22-4,3.1,0,2.25,2.09,3.2,4.73,4.16,3.83,1.4,8.6,2.8,8.6,8,0,4.76-4.1,7.37-8.79,7.37C54.5,159.82,50.18,157.1,50.18,151.53Z"/><path class="cls-1" d="M86,159.34,75.67,147.07v12.27H71.39v-25.8h4.28v11.54l9.9-11.54h5.1L80.1,146.11l11,13.23Z"/><path class="cls-1" d="M89.78,146.44a13.52,13.52,0,1,1,13.51,13.38A13.36,13.36,0,0,1,89.78,146.44Zm22.75,0a9.24,9.24,0,1,0-9.24,9.26A9.05,9.05,0,0,0,112.53,146.44Z"/><path class="cls-1" d="M137.81,141.84a8.34,8.34,0,0,1-8.45,8.29H124v9.21h-4.28v-25.8h9.6A8.32,8.32,0,0,1,137.81,141.84Zm-4.28,0a4.18,4.18,0,0,0-4.17-4.32H124v8.63h5.32A4.21,4.21,0,0,0,133.53,141.84Z"/><path class="cls-1" d="M136.29,151.82v-.55h4.28v.55c0,2.66,1.75,3.88,4.28,3.88s4.28-1.22,4.28-3.88V133.54h4.28v18.28c0,5.46-4.13,8-8.56,8S136.29,157.28,136.29,151.82Z"/><path class="cls-1" d="M172.85,155.29v4.05H157.59v-25.8h15.07v4.06H161.87v6.71h9.86v4h-9.86v7Z"/><path class="cls-1" d="M52.67,0H72.05A55.86,55.86,0,0,1,85.43,1.57a30.52,30.52,0,0,1,11,5.1,25,25,0,0,1,7.5,9.15,30.7,30.7,0,0,1,2.78,13.67A27.75,27.75,0,0,1,104.06,42a27,27,0,0,1-7.24,9.12A32.27,32.27,0,0,1,86.3,56.74a40.9,40.9,0,0,1-12.51,1.9H52.67ZM65.59,46.71H72.3a35.9,35.9,0,0,0,8.32-.91,17.65,17.65,0,0,0,6.67-3,14.44,14.44,0,0,0,4.43-5.55,19.62,19.62,0,0,0,1.62-8.41,16.31,16.31,0,0,0-1.62-7.49,14.8,14.8,0,0,0-4.35-5.26A19,19,0,0,0,81,13a28.42,28.42,0,0,0-7.74-1H65.59Z"/><path class="cls-1" d="M113.75,0h39.84V11.93H126.68V22.86H152.1V34.79H126.68V46.71h28.41V58.64H113.75Z"/><path class="cls-1" d="M159.63,0h14.74l14.5,38.43H189L203.78,0h13.83L193.42,58.64H183.07Z"/><path class="cls-1" d="M37,111.67a14.54,14.54,0,0,1-7,1.65,15.21,15.21,0,0,1-6.51-1.41A15.93,15.93,0,0,1,18.22,108a19,19,0,0,1-3.51-6,22.94,22.94,0,0,1,0-15.11,18,18,0,0,1,3.56-6A15.66,15.66,0,0,1,23.66,77a16.09,16.09,0,0,1,6.74-1.41,15.63,15.63,0,0,1,6.43,1.23,12.43,12.43,0,0,1,4.07,2.89,34.32,34.32,0,0,1,7.24-10.75c-.32-.26-.66-.5-1-.75a23.46,23.46,0,0,0-5-2.64,28.13,28.13,0,0,0-5.29-1.46,31.7,31.7,0,0,0-5.18-.46A36,36,0,0,0,19,65.78,28.88,28.88,0,0,0,9,72a28,28,0,0,0-6.58,9.73,35.51,35.51,0,0,0,0,25.51A27.91,27.91,0,0,0,9,116.93a29.18,29.18,0,0,0,10,6.17,36.21,36.21,0,0,0,12.68,2.14,29.27,29.27,0,0,0,11.75-2.48,22.69,22.69,0,0,0,4.52-2.62,35,35,0,0,1-7.25-11.31A13.85,13.85,0,0,1,37,111.67Z"/><path class="cls-1" d="M117.27,65.12h17.56l24.93,40.75h.17V65.12h12.92v58.64H156L130.36,82h-.17v41.75H117.27Z"/><path class="cls-1" d="M4.69,35.31V26.89L46.23,9.39V20.51l-25,10.71,25,10.39v11.2Z"/><path class="cls-1" d="M179.37,114.15V103l25-10.39-25-10.71V70.73l41.55,17.5v8.42Z"/><path class="cls-1" d="M47.1,94.44a33,33,0,0,1,2.36-12.76A28,28,0,0,1,56,72a29.07,29.07,0,0,1,10-6.17,36,36,0,0,1,12.67-2.15,36,36,0,0,1,12.67,2.15,29,29,0,0,1,10,6.17A28,28,0,0,1,108,81.68a35.65,35.65,0,0,1,0,25.51,28.07,28.07,0,0,1-6.59,9.74,29.18,29.18,0,0,1-10,6.17,38.41,38.41,0,0,1-25.34,0,29.22,29.22,0,0,1-10-6.17,28,28,0,0,1-6.58-9.74A33,33,0,0,1,47.1,94.44Zm13.42,0A21.42,21.42,0,0,0,61.8,102a17.26,17.26,0,0,0,3.69,6,16.77,16.77,0,0,0,5.75,3.93,20.63,20.63,0,0,0,15,0A16.72,16.72,0,0,0,92,108a17.41,17.41,0,0,0,3.69-6,23,23,0,0,0,0-15.12,17.3,17.3,0,0,0-3.69-6A16.74,16.74,0,0,0,86.23,77a20.63,20.63,0,0,0-15,0,16.8,16.8,0,0,0-5.75,3.94,17.16,17.16,0,0,0-3.69,6A21.51,21.51,0,0,0,60.52,94.44Z"/></g></g></svg>