<?xml version="1.0" encoding="utf-8"?>
<!-- Generator: Adobe Illustrator 24.0.1, SVG Export Plug-In . SVG Version: 6.00 Build 0)  -->
<svg version="1.1" id="layout" xmlns="http://www.w3.org/2000/svg" xmlns:xlink="http://www.w3.org/1999/xlink" x="0px" y="0px"
	 viewBox="0 0 88.5 49.8" style="enable-background:new 0 0 88.5 49.8;" xml:space="preserve">
<style type="text/css">
	.st0{fill:#FCFCFC;}
</style>
<g>
	<g>
		<path class="st0" d="M22.7,2.3h7.1c1.7,0,3.4,0.2,4.9,0.6c1.6,0.4,2.9,1,4.1,1.9c1.2,0.9,2.1,2,2.8,3.4s1,3.1,1,5
			c0,1.7-0.3,3.3-1,4.6c-0.7,1.3-1.5,2.4-2.7,3.3c-1.1,0.9-2.4,1.6-3.9,2.1s-3,0.7-4.6,0.7h-7.8V2.3H22.7z M27.5,19.5H30
			c1.1,0,2.1-0.1,3.1-0.3c0.9-0.2,1.8-0.6,2.5-1.1s1.2-1.2,1.6-2c0.4-0.8,0.6-1.9,0.6-3.1c0-1.1-0.2-2-0.6-2.8
			c-0.4-0.8-0.9-1.4-1.6-1.9c-0.7-0.5-1.5-0.9-2.4-1.1c-0.9-0.3-1.9-0.4-2.8-0.4h-2.8L27.5,19.5L27.5,19.5z"/>
		<path class="st0" d="M45.2,2.3h14.6v4.4h-9.9v4h9.3v4.4h-9.3v4.4h10.4v4.4H45.2V2.3z"/>
		<path class="st0" d="M62.1,2.3h5.4l5.3,14.1h0.1l5.4-14.1h5.1l-8.9,21.6h-3.8L62.1,2.3z"/>
		<path class="st0" d="M17,43.4c-0.7,0.4-1.6,0.6-2.6,0.6c-0.9,0-1.7-0.2-2.4-0.5s-1.4-0.8-1.9-1.4c-0.5-0.6-1-1.3-1.3-2.2
			C8.5,39,8.3,38,8.3,37s0.2-1.9,0.5-2.8c0.3-0.9,0.7-1.6,1.3-2.2c0.6-0.6,1.2-1.1,2-1.4s1.6-0.5,2.5-0.5s1.7,0.1,2.4,0.5
			c0.6,0.3,1.1,0.6,1.5,1.1c0.7-1.5,1.6-2.9,2.7-4c-0.1-0.1-0.2-0.2-0.4-0.3c-0.6-0.4-1.2-0.7-1.8-1c-0.6-0.2-1.3-0.4-1.9-0.5
			c-0.7-0.1-1.3-0.2-1.9-0.2c-1.7,0-3.2,0.3-4.7,0.8c-1.4,0.5-2.6,1.3-3.7,2.3c-1,1-1.8,2.2-2.4,3.6c-0.6,1.4-0.9,3-0.9,4.7
			s0.3,3.3,0.9,4.7s1.4,2.6,2.4,3.6s2.3,1.7,3.7,2.3c1.4,0.5,3,0.8,4.7,0.8c1.5,0,2.9-0.3,4.3-0.9c0.6-0.3,1.2-0.6,1.7-1
			c-1.1-1.2-2-2.6-2.7-4.2C18,42.7,17.5,43.1,17,43.4z"/>
		<path class="st0" d="M46.5,26.2H53l9.2,15h0.1v-15H67v21.6h-6.2l-9.4-15.3h-0.1v15.3h-4.7V26.2H46.5z"/>
		<path class="st0" d="M5.1,15.3v-3.1l15.3-6.4v4.1l-9.2,3.9l9.2,3.8v4.1L5.1,15.3z"/>
		<path class="st0" d="M69.3,44.3v-4.1l9.2-3.8l-9.2-3.9v-4.1l15.3,6.4v3.1L69.3,44.3z"/>
		<path class="st0" d="M20.7,37c0-1.7,0.3-3.3,0.9-4.7c0.6-1.4,1.4-2.6,2.4-3.6s2.3-1.7,3.7-2.3c1.4-0.5,3-0.8,4.7-0.8
			s3.2,0.3,4.7,0.8c1.4,0.5,2.6,1.3,3.7,2.3c1,1,1.8,2.2,2.4,3.6c0.6,1.4,0.9,3,0.9,4.7s-0.3,3.3-0.9,4.7s-1.4,2.6-2.4,3.6
			s-2.3,1.7-3.7,2.3c-1.4,0.5-3,0.8-4.7,0.8s-3.2-0.3-4.7-0.8C26.2,47,25,46.3,24,45.3s-1.8-2.2-2.4-3.6C21,40.3,20.7,38.7,20.7,37z
			 M25.6,37c0,1,0.2,1.9,0.5,2.8c0.3,0.8,0.8,1.6,1.4,2.2c0.6,0.6,1.3,1.1,2.1,1.4c0.8,0.3,1.7,0.5,2.8,0.5c1,0,1.9-0.2,2.8-0.5
			c0.8-0.3,1.5-0.8,2.1-1.4c0.6-0.6,1-1.3,1.4-2.2C38.9,39,39,38,39,37s-0.2-1.9-0.5-2.8c-0.3-0.9-0.8-1.6-1.4-2.2
			c-0.6-0.6-1.3-1.1-2.1-1.4s-1.7-0.5-2.8-0.5c-1,0-1.9,0.2-2.8,0.5c-0.8,0.3-1.5,0.8-2.1,1.4c-0.6,0.6-1,1.4-1.4,2.2
			C25.8,35.1,25.6,36,25.6,37z"/>
	</g>
</g>
</svg>
